<svg xmlns="http://www.w3.org/2000/svg" viewBox="0 0 1200 630" role="img" aria-label="Nick Moein portfolio social card">
  <rect width="1200" height="630" fill="#0b1220"/>
  <path d="M0 0h1200v630H0z" fill="#0b1220"/>
  <path d="M80 92h1040v446H80z" fill="#111827" stroke="#334155" stroke-width="2"/>
  <path d="M80 170h1040" stroke="#334155" stroke-width="2"/>
  <circle cx="126" cy="130" r="10" fill="#60a5fa"/>
  <circle cx="162" cy="130" r="10" fill="#2dd4bf"/>
  <circle cx="198" cy="130" r="10" fill="#f97316"/>
  <text x="100" y="252" fill="#60a5fa" font-family="Segoe UI, Arial, sans-serif" font-size="34" font-weight="700">Nick Moein / Full-stack .NET developer</text>
  <text x="100" y="342" fill="#f9fafb" font-family="Segoe UI, Arial, sans-serif" font-size="64" font-weight="800">50% faster CI/test cycles</text>
  <text x="100" y="420" fill="#cbd5e1" font-family="Segoe UI, Arial, sans-serif" font-size="38">C# .NET / React / Azure / Kubernetes</text>
  <text x="100" y="488" fill="#94a3b8" font-family="Segoe UI, Arial, sans-serif" font-size="30">Secure cloud-backed systems with production Genetec experience.</text>
  <path d="M876 258c80 0 144 64 144 144s-64 144-144 144-144-64-144-144 64-144 144-144Z" fill="none" stroke="#60a5fa" stroke-width="4" opacity=".5"/>
  <path d="M876 302c55 0 100 45 100 100s-45 100-100 100-100-45-100-100 45-100 100-100Z" fill="none" stroke="#f97316" stroke-width="4" opacity=".45"/>
  <path d="M776 402h200M876 302v200" stroke="#2dd4bf" stroke-width="3" opacity=".55"/>
</svg>
